<svg xmlns="http://www.w3.org/2000/svg" viewBox="0 8.960000038146973 149.27000427246094 29.10000228881836" data-asc="0.75" width="149.27000427246094" height="29.10000228881836"><defs/><g><g><g transform="translate(0, 0)"><path d="M10.18 38.01Q7.13 38.01 5.48 35.75Q3.83 33.50 3.83 28.86L3.83 21.02Q3.83 19.21 2.99 18.44Q2.15 17.68 0 17.48L0 16.72Q0.51 16.80 1.28 16.82Q2.05 16.85 2.81 16.85Q4.03 16.85 5.16 16.72Q6.30 16.60 7.50 16.28L7.50 31.74Q7.50 34.47 8.51 35.64Q9.52 36.82 11.60 36.82Q13.06 36.82 14.36 35.68Q15.65 34.55 16.58 32.08L16.58 21.02Q16.58 19.14 15.81 18.41Q15.04 17.68 13.06 17.48L13.06 16.72Q13.62 16.80 14.37 16.82Q15.11 16.85 15.80 16.85Q16.97 16.85 18.05 16.74Q19.14 16.63 20.21 16.28L20.21 33.23Q20.21 35.06 21.08 35.86Q21.95 36.67 24.10 36.79L24.10 37.52Q22.71 37.40 21.26 37.40Q20.04 37.40 18.90 37.51Q17.75 37.62 16.58 37.96L16.58 33.72Q15.65 36.01 13.95 37.01Q12.26 38.01 10.18 38.01ZM27.32 37.50L27.32 36.74Q29.64 36.69 30.74 36.40Q31.84 36.11 32.15 35.36Q32.47 34.62 32.47 33.28L32.47 13.16Q32.47 11.84 32.15 11.11Q31.84 10.38 30.74 10.06Q29.64 9.74 27.32 9.69L27.32 8.96Q28.59 8.96 30.35 8.98Q32.10 9.01 34.50 9.01Q36.67 9.01 38.67 8.98Q40.67 8.96 41.92 8.96Q51.46 8.96 56.13 12.46Q60.79 15.97 60.79 22.68Q60.79 30.03 55.76 33.76Q50.73 37.50 41.70 37.50Q40.43 37.50 38.67 37.44Q36.91 37.38 34.59 37.38Q32.13 37.38 30.05 37.43Q27.98 37.48 27.32 37.50M40.87 36.77Q49.27 36.77 53.02 33.45Q56.76 30.13 56.76 23.12Q56.76 16.06 52.97 12.88Q49.17 9.69 40.92 9.69L36.25 9.69L36.25 33.37Q36.25 34.86 36.58 35.58Q36.91 36.30 37.90 36.54Q38.89 36.77 40.87 36.77ZM75.37 38.06Q72.56 38.06 70.46 36.72Q68.36 35.38 67.19 32.98Q66.02 30.59 66.02 27.49Q66.02 22.39 68.59 19.27Q71.17 16.16 75.68 16.16Q78.17 16.16 80.02 17.48Q81.86 18.80 82.86 20.90Q83.86 23.00 83.81 25.32L69.95 25.32Q69.92 25.59 69.92 26.07Q69.92 31.52 71.67 34.13Q73.41 36.74 76.61 36.74Q78.66 36.74 80.40 35.77Q82.13 34.79 83.13 32.57L83.79 33.37Q82.84 35.72 80.60 36.89Q78.37 38.06 75.37 38.06M75.44 16.94Q74.12 16.94 72.96 18.05Q71.80 19.17 71.01 20.91Q70.21 22.66 70.00 24.51L79.96 24.51Q80.03 20.31 78.92 18.63Q77.81 16.94 75.44 16.94ZM97.41 38.06Q93.38 38.06 90.93 35.17Q88.48 32.28 88.48 27.42Q88.48 24.07 89.65 21.55Q90.82 19.02 92.93 17.59Q95.04 16.16 97.85 16.16Q100.83 16.16 102.86 17.69Q104.88 19.21 104.88 21.53Q104.88 23.10 104.24 24.15Q103.59 25.20 102.51 25.20Q101.64 25.20 101.09 24.67Q100.54 24.15 100.54 23.24Q100.54 22.29 101.15 21.14Q101.76 20.00 101.76 18.87Q101.76 18.02 100.78 17.57Q99.80 17.11 98.36 17.11Q95.48 17.11 93.92 19.78Q92.36 22.44 92.36 27.10Q92.36 31.71 93.97 34.23Q95.58 36.74 98.56 36.74Q100.59 36.74 102.11 35.82Q103.64 34.89 104.47 32.57L105.18 33.37Q104.35 35.74 102.28 36.90Q100.22 38.06 97.41 38.06ZM119.87 38.06Q116.92 38.06 114.58 36.66Q112.23 35.25 110.88 32.79Q109.52 30.32 109.52 27.15Q109.52 24.02 110.86 21.53Q112.21 19.04 114.55 17.60Q116.89 16.16 119.87 16.16Q122.85 16.16 125.20 17.60Q127.54 19.04 128.89 21.53Q130.25 24.02 130.25 27.15Q130.25 30.25 128.89 32.73Q127.54 35.21 125.20 36.63Q122.85 38.06 119.87 38.06M119.87 37.33Q121.75 37.33 123.21 35.96Q124.66 34.59 125.49 32.29Q126.32 29.98 126.32 27.15Q126.32 24.29 125.49 21.97Q124.66 19.65 123.21 18.29Q121.75 16.92 119.87 16.92Q118.02 16.92 116.56 18.29Q115.11 19.65 114.28 21.97Q113.45 24.29 113.45 27.15Q113.45 30.00 114.28 32.31Q115.11 34.62 116.56 35.97Q118.02 37.33 119.87 37.33ZM133.89 37.50L133.89 36.74Q135.77 36.69 136.44 36.11Q137.11 35.52 137.11 33.84L137.11 21.02Q137.11 19.21 136.38 18.42Q135.64 17.63 133.89 17.48L133.89 16.72Q134.74 16.82 135.41 16.83Q136.08 16.85 136.72 16.85Q137.65 16.85 138.70 16.72Q139.75 16.60 140.75 16.28L140.75 18.99Q141.50 17.55 143.01 16.86Q144.51 16.16 145.95 16.16Q147.46 16.16 148.36 17.22Q149.27 18.29 149.27 19.97Q149.27 21.46 148.75 22.42Q148.24 23.39 147.39 23.39Q146.58 23.39 146.08 22.91Q145.58 22.44 145.58 21.61Q145.58 20.46 145.92 19.75Q146.26 19.04 146.26 18.19Q146.26 17.43 145.07 17.43Q143.85 17.43 142.49 18.16Q141.14 18.90 140.75 20.90L140.75 33.54Q140.75 35.28 141.69 35.99Q142.63 36.69 144.92 36.74L144.92 37.50Q144.02 37.45 142.35 37.39Q140.67 37.33 139.01 37.33Q137.45 37.33 136.04 37.39Q134.62 37.45 133.89 37.50Z"/></g></g></g></svg>