<svg xmlns="http://www.w3.org/2000/svg" viewBox="0 8.960000038146973 183.47000122070312 29.10000228881836" data-asc="0.75" width="183.47000122070312" height="29.10000228881836"><defs/><g><g><g transform="translate(0, 0)"><path d="M17.50 37.96L16.24 37.96L4.74 12.55Q4.13 11.21 3.04 10.53Q1.95 9.86 0 9.69L0 8.96Q1.27 8.98 2.81 9.03Q4.35 9.08 5.96 9.08Q8.28 9.08 10.07 9.03Q11.87 8.98 12.92 8.96L12.92 9.69Q9.62 9.77 8.86 10.51Q8.11 11.25 9.01 13.26L18.19 34.47L25.44 18.24Q27.37 13.94 26.39 11.79Q25.42 9.64 22.27 9.69L22.27 8.96Q23.46 8.96 25.12 9.02Q26.78 9.08 28.56 9.08Q29.64 9.08 30.63 9.05Q31.62 9.01 33.47 8.96L33.47 9.69Q31.67 9.89 30.54 10.61Q29.42 11.33 28.64 13.04L17.50 37.96ZM44.38 38.01Q41.33 38.01 39.69 35.75Q38.04 33.50 38.04 28.86L38.04 21.02Q38.04 19.21 37.19 18.44Q36.35 17.68 34.20 17.48L34.20 16.72Q34.72 16.80 35.49 16.82Q36.25 16.85 37.01 16.85Q38.23 16.85 39.37 16.72Q40.50 16.60 41.70 16.28L41.70 31.74Q41.70 34.47 42.71 35.64Q43.73 36.82 45.80 36.82Q47.27 36.82 48.56 35.68Q49.85 34.55 50.78 32.08L50.78 21.02Q50.78 19.14 50.01 18.41Q49.24 17.68 47.27 17.48L47.27 16.72Q47.83 16.80 48.57 16.82Q49.32 16.85 50 16.85Q51.17 16.85 52.26 16.74Q53.34 16.63 54.42 16.28L54.42 33.23Q54.42 35.06 55.29 35.86Q56.15 36.67 58.30 36.79L58.30 37.52Q56.91 37.40 55.47 37.40Q54.25 37.40 53.10 37.51Q51.95 37.62 50.78 37.96L50.78 33.72Q49.85 36.01 48.16 37.01Q46.46 38.01 44.38 38.01ZM61.52 37.50L61.52 36.74Q63.84 36.69 64.94 36.40Q66.04 36.11 66.36 35.36Q66.67 34.62 66.67 33.28L66.67 13.16Q66.67 11.84 66.36 11.11Q66.04 10.38 64.94 10.06Q63.84 9.74 61.52 9.69L61.52 8.96Q62.79 8.96 64.55 8.98Q66.31 9.01 68.70 9.01Q70.87 9.01 72.88 8.98Q74.88 8.96 76.12 8.96Q85.67 8.96 90.33 12.46Q95.00 15.97 95.00 22.68Q95.00 30.03 89.97 33.76Q84.94 37.50 75.90 37.50Q74.63 37.50 72.88 37.44Q71.12 37.38 68.80 37.38Q66.33 37.38 64.26 37.43Q62.18 37.48 61.52 37.50M75.07 36.77Q83.47 36.77 87.22 33.45Q90.97 30.13 90.97 23.12Q90.97 16.06 87.17 12.88Q83.37 9.69 75.12 9.69L70.46 9.69L70.46 33.37Q70.46 34.86 70.79 35.58Q71.12 36.30 72.11 36.54Q73.10 36.77 75.07 36.77ZM109.57 38.06Q106.76 38.06 104.66 36.72Q102.56 35.38 101.39 32.98Q100.22 30.59 100.22 27.49Q100.22 22.39 102.80 19.27Q105.37 16.16 109.89 16.16Q112.38 16.16 114.22 17.48Q116.06 18.80 117.07 20.90Q118.07 23.00 118.02 25.32L104.15 25.32Q104.13 25.59 104.13 26.07Q104.13 31.52 105.87 34.13Q107.62 36.74 110.82 36.74Q112.87 36.74 114.60 35.77Q116.33 34.79 117.33 32.57L117.99 33.37Q117.04 35.72 114.81 36.89Q112.57 38.06 109.57 38.06M109.64 16.94Q108.33 16.94 107.17 18.05Q106.01 19.17 105.21 20.91Q104.42 22.66 104.20 24.51L114.16 24.51Q114.23 20.31 113.12 18.63Q112.01 16.94 109.64 16.94ZM131.62 38.06Q127.59 38.06 125.13 35.17Q122.68 32.28 122.68 27.42Q122.68 24.07 123.85 21.55Q125.02 19.02 127.14 17.59Q129.25 16.16 132.06 16.16Q135.03 16.16 137.06 17.69Q139.09 19.21 139.09 21.53Q139.09 23.10 138.44 24.15Q137.79 25.20 136.72 25.20Q135.84 25.20 135.29 24.67Q134.74 24.15 134.74 23.24Q134.74 22.29 135.35 21.14Q135.96 20.00 135.96 18.87Q135.96 18.02 134.99 17.57Q134.01 17.11 132.57 17.11Q129.69 17.11 128.13 19.78Q126.56 22.44 126.56 27.10Q126.56 31.71 128.17 34.23Q129.79 36.74 132.76 36.74Q134.79 36.74 136.32 35.82Q137.84 34.89 138.67 32.57L139.38 33.37Q138.55 35.74 136.49 36.90Q134.42 38.06 131.62 38.06ZM154.08 38.06Q151.12 38.06 148.78 36.66Q146.44 35.25 145.08 32.79Q143.73 30.32 143.73 27.15Q143.73 24.02 145.07 21.53Q146.41 19.04 148.75 17.60Q151.10 16.16 154.08 16.16Q157.06 16.16 159.40 17.60Q161.74 19.04 163.10 21.53Q164.45 24.02 164.45 27.15Q164.45 30.25 163.10 32.73Q161.74 35.21 159.40 36.63Q157.06 38.06 154.08 38.06M154.08 37.33Q155.96 37.33 157.41 35.96Q158.86 34.59 159.69 32.29Q160.52 29.98 160.52 27.15Q160.52 24.29 159.69 21.97Q158.86 19.65 157.41 18.29Q155.96 16.92 154.08 16.92Q152.22 16.92 150.77 18.29Q149.32 19.65 148.49 21.97Q147.66 24.29 147.66 27.15Q147.66 30.00 148.49 32.31Q149.32 34.62 150.77 35.97Q152.22 37.33 154.08 37.33ZM168.09 37.50L168.09 36.74Q169.97 36.69 170.64 36.11Q171.31 35.52 171.31 33.84L171.31 21.02Q171.31 19.21 170.58 18.42Q169.85 17.63 168.09 17.48L168.09 16.72Q168.95 16.82 169.62 16.83Q170.29 16.85 170.92 16.85Q171.85 16.85 172.90 16.72Q173.95 16.60 174.95 16.28L174.95 18.99Q175.71 17.55 177.21 16.86Q178.71 16.16 180.15 16.16Q181.67 16.16 182.57 17.22Q183.47 18.29 183.47 19.97Q183.47 21.46 182.96 22.42Q182.45 23.39 181.59 23.39Q180.79 23.39 180.29 22.91Q179.79 22.44 179.79 21.61Q179.79 20.46 180.13 19.75Q180.47 19.04 180.47 18.19Q180.47 17.43 179.27 17.43Q178.05 17.43 176.70 18.16Q175.34 18.90 174.95 20.90L174.95 33.54Q174.95 35.28 175.89 35.99Q176.83 36.69 179.13 36.74L179.13 37.50Q178.22 37.45 176.55 37.39Q174.88 37.33 173.22 37.33Q171.66 37.33 170.24 37.39Q168.82 37.45 168.09 37.50Z"/></g></g></g></svg>